{
	"asset":{
		"version":"2.0",
		"generator":"Houdini GLTF 2.0 Exporter"
	},
	"accessors":[
		{
			"bufferView":0,
			"componentType":5121,
			"count":84,
			"type":"SCALAR",
			"min":[0
			],
			"max":[83
			]
		},
		{
			"bufferView":1,
			"componentType":5126,
			"count":84,
			"type":"VEC3",
			"min":[-1.83082223,-7.51075824e-09,0.376521051
			],
			"max":[1.83082223,5.050385,5.72323847
			]
		},
		{
			"bufferView":2,
			"componentType":5126,
			"count":84,
			"type":"VEC2",
			"min":[0.266338378,0.594016552
			],
			"max":[0.383661568,0.711508393
			]
		},
		{
			"bufferView":3,
			"componentType":5126,
			"count":84,
			"type":"VEC3",
			"min":[0,-0.999085069,-0.0427670963
			],
			"max":[0,-0.681126237,0.732165992
			]
		}
	],
	"buffers":[
		{
			"uri":"NFT_Galery_tooth_wood_02_data.bin",
			"byteLength":2772,
			"name":"main_buffer"
		}
	],
	"bufferViews":[
		{
			"buffer":0,
			"byteLength":84,
			"target":34963
		},
		{
			"buffer":0,
			"byteOffset":84,
			"byteLength":1008,
			"target":34962
		},
		{
			"buffer":0,
			"byteOffset":1092,
			"byteLength":672,
			"target":34962
		},
		{
			"buffer":0,
			"byteOffset":1764,
			"byteLength":1008,
			"target":34962
		}
	],
	"nodes":[
		{
			"name":"NFT_galery",
			"mesh":0
		}
	],
	"meshes":[
		{
			"primitives":[
				{
					"attributes":{
						"NORMAL":3,
						"TEXCOORD_0":2,
						"POSITION":1
					},
					"indices":0
				}
			]
		}
	],
	"scenes":[
		{
			"nodes":[0
			]
		}
	],
	"scene":0
}
