{
	"asset":{
		"version":"2.0",
		"generator":"Houdini GLTF 2.0 Exporter"
	},
	"accessors":[
		{
			"bufferView":0,
			"componentType":5123,
			"count":4032,
			"type":"SCALAR",
			"min":[0
			],
			"max":[4031
			]
		},
		{
			"bufferView":1,
			"componentType":5126,
			"count":4032,
			"type":"VEC3",
			"min":[-10.1432123,-1.29649507e-07,-12.7519054
			],
			"max":[10.1432123,10.9884615,16.8277302
			]
		},
		{
			"bufferView":2,
			"componentType":5126,
			"count":4032,
			"type":"VEC2",
			"min":[0,0.350000024
			],
			"max":[0.649999976,1
			]
		},
		{
			"bufferView":3,
			"componentType":5126,
			"count":4032,
			"type":"VEC3",
			"min":[-0.979991376,-1,-0.718016446
			],
			"max":[0.979991376,0.994517922,0.930229068
			]
		}
	],
	"buffers":[
		{
			"uri":"NFT_Galery_tooth_concrete_02_data.bin",
			"byteLength":137088,
			"name":"main_buffer"
		}
	],
	"bufferViews":[
		{
			"buffer":0,
			"byteLength":8064,
			"target":34963
		},
		{
			"buffer":0,
			"byteOffset":8064,
			"byteLength":48384,
			"target":34962
		},
		{
			"buffer":0,
			"byteOffset":56448,
			"byteLength":32256,
			"target":34962
		},
		{
			"buffer":0,
			"byteOffset":88704,
			"byteLength":48384,
			"target":34962
		}
	],
	"nodes":[
		{
			"name":"NFT_galery",
			"mesh":0
		}
	],
	"meshes":[
		{
			"primitives":[
				{
					"attributes":{
						"NORMAL":3,
						"TEXCOORD_0":2,
						"POSITION":1
					},
					"indices":0
				}
			]
		}
	],
	"scenes":[
		{
			"nodes":[0
			]
		}
	],
	"scene":0
}
